<?xml version="1.0" encoding="UTF-8"?>
<svg id="Layer_1" data-name="Layer 1" xmlns="http://www.w3.org/2000/svg" viewBox="0 0 1726.28 408.78">
  <defs>
    <style>
      .cls-1 {
        fill: #c1c1c1;
        stroke-width: 0px;
      }
    </style>
  </defs>
  <path class="cls-1" d="M1726.28,351.86c0,31.44-25.48,56.92-56.92,56.92H48.28c-26.67,0-48.28-21.62-48.28-48.28s21.61-48.29,48.28-48.29c5.45,0,10.66.95,15.56,2.62-1-6-1.65-12.13-1.65-18.41,0-62.05,50.32-112.36,112.37-112.36,7.89,0,15.58.83,23.01,2.37-.04-.79-.12-1.57-.12-2.37,0-26.67,21.62-48.28,48.28-48.28,11.76,0,22.53,4.2,30.9,11.18,2.49-59.85,51.66-107.65,112.12-107.65,39.86,0,74.79,20.82,94.74,52.12,5.34-20.87,24.2-36.32,46.73-36.32,19.54,0,36.31,11.62,43.92,28.29C607.01,33.19,663.72,0,728.19,0c101.65,0,184.06,82.4,184.06,184.06,0,6.8-.4,13.5-1.11,20.12,1.08-.75,2.15-1.48,3.25-2.18,6.83-13.69,20.96-23.1,37.3-23.1,7.1,0,13.77,1.77,19.61,4.9-.75-4.04-1.19-8.2-1.19-12.46,0-37.61,30.5-68.09,68.1-68.09,25.44,0,47.58,13.97,59.28,34.63,30.04-65.28,95.98-110.63,172.57-110.63,101.41,0,184.24,79.5,189.62,179.58,19.07-15,43.07-24.03,69.22-24.03,61.94,0,112.14,50.21,112.14,112.14,0,2.66-.21,5.23-.39,7.84,8.43-4.95,18.23-7.84,28.72-7.84,31.44,0,56.92,25.49,56.92,56.94Z"/>
</svg>