<?xml version="1.0" encoding="UTF-8"?>
<svg id="Layer_1" data-name="Layer 1" xmlns="http://www.w3.org/2000/svg" viewBox="0 0 2032.52 476.46">
  <defs>
    <style>
      .cls-1 {
        fill: #7f7f7f;
        stroke-width: 0px;
      }
    </style>
  </defs>
  <path class="cls-1" d="M2032.52,339.47c0,75.66-61.33,136.99-136.99,136.99h-782.07l.03-.19c-2.21-.06-4.42-.17-6.6-.34-3.15.35-6.36.53-9.6.53H140.67C62.98,476.46,0,413.48,0,335.79s62.98-140.67,140.67-140.67c15.51,0,30.39,2.61,44.34,7.24C202.31,87.81,301.17,0,420.54,0c99.55,0,184.79,61.07,220.41,147.77,21.9-14.06,47.88-22.32,75.84-22.32,58.79,0,109.11,36.1,130.13,87.32,20.2-11.21,43.42-17.65,68.16-17.65,41.94,0,79.54,18.38,105.26,47.52,24.79-24.82,59.05-40.17,96.9-40.17,26.79,0,51.7,7.81,72.81,21.1,5.41-40.72,40.18-72.17,82.38-72.17,26.52,0,50.09,12.45,65.33,31.78,26.88-98.39,116.85-170.73,223.76-170.73,78.82,0,148.41,39.34,190.34,99.42,14.62-12.76,33.7-20.54,54.63-20.54,45.94,0,83.19,37.24,83.19,83.19,0,10.03-1.86,19.6-5.12,28.51,3.63-.29,7.27-.56,10.97-.56,75.66,0,136.99,61.34,136.99,137Z"/>
</svg>