<?xml version="1.0" encoding="UTF-8"?>
<svg id="Layer_1" data-name="Layer 1" xmlns="http://www.w3.org/2000/svg" viewBox="0 0 1947.73 410.71">
  <defs>
    <style>
      .cls-1 {
        fill: #ced5e0;
      }

      .cls-1, .cls-2 {
        stroke-width: 0px;
      }

      .cls-2 {
        fill: #d8d8d8;
      }
    </style>
  </defs>
  <path class="cls-1" d="M1947.11,60.93v.45h.62c-.21-.14-.41-.29-.62-.45ZM1947.11,60.93v.45h.62c-.21-.14-.41-.29-.62-.45ZM278.41,114.68c-2.5,2.51-4.85,5.16-7.04,7.95,4.16,2.66,8.34,5.32,12.55,7.97-1.2-5.58-3.07-10.92-5.51-15.92ZM453.13,183.88h.74v-.53c-.25.18-.49.36-.74.53ZM453.13,183.88h.74v-.53c-.25.18-.49.36-.74.53ZM1947.11,60.93v.45h.62c-.21-.14-.41-.29-.62-.45ZM278.41,114.68c-2.5,2.51-4.85,5.16-7.04,7.95,4.16,2.66,8.34,5.32,12.55,7.97-1.2-5.58-3.07-10.92-5.51-15.92ZM278.41,114.68c-2.5,2.51-4.85,5.16-7.04,7.95,4.16,2.66,8.34,5.32,12.55,7.97-1.2-5.58-3.07-10.92-5.51-15.92ZM453.13,183.88h.74v-.53c-.25.18-.49.36-.74.53Z"/>
  <path class="cls-2" d="M1861.51,305.66c0,57.14-46.33,103.47-103.47,103.47-.85,0-1.66-.11-2.5-.13v1.71H61.28c-33.84,0-61.28-27.44-61.28-61.28s27.44-61.28,61.28-61.28c6.78,0,13.28,1.14,19.38,3.18-12.41-26.38-19.38-55.82-19.38-86.9C61.28,91.53,152.81,0,265.71,0c96.9,0,177.99,67.44,199.06,157.92,12.84-21.24,36.08-35.49,62.71-35.49,38.08,0,69.36,29.04,72.95,66.18,19.41-13.33,42.9-21.17,68.23-21.17,30.78,0,58.77,11.61,80.1,30.57,8.07-31.72,36.73-55.21,70.96-55.21s64.39,24.69,71.58,57.63c21.62-20.4,50.69-32.99,82.76-32.99,40.73,0,76.74,20.17,98.61,51.07,16.09-10.33,35.23-16.32,55.78-16.32s41.39,6.54,57.91,17.72c7.14-90.23,82.56-161.24,174.63-161.24,50.09,0,95.24,21.06,127.18,54.76,6.95-9.96,18.46-16.51,31.54-16.51,17.68,0,32.42,11.99,36.94,28.23,11.24-17,30.51-28.23,52.42-28.23,34.7,0,62.84,28.13,62.84,62.83,0,.63-.08,1.24-.1,1.87,3.59-1.1,7.32-1.87,11.26-1.87,21.26,0,38.5,17.24,38.5,38.5,0,3.99-.78,7.76-1.91,11.38,11.88-4.75,24.8-7.44,38.38-7.44,57.14,0,103.47,46.33,103.47,103.47Z"/>
</svg>