<?xml version="1.0" encoding="UTF-8"?>
<svg id="Layer_1" data-name="Layer 1" xmlns="http://www.w3.org/2000/svg" viewBox="0 0 321.53 687.45">
  <defs>
    <style>
      .cls-1 {
        fill: #fbb03b;
      }

      .cls-1, .cls-2 {
        stroke-width: 0px;
      }

      .cls-2 {
        fill: #e4834c;
      }
    </style>
  </defs>
  <g>
    <g>
      <path class="cls-1" d="M103.02,385.28h0s115.51,0,115.51,0h0s-115.51,0-115.51,0Z"/>
      <path class="cls-1" d="M193.16,359.31h0s25.36,0,25.36,0h0s-25.36,0-25.36,0ZM103.01,359.31h0s25.37,0,25.37,0h0s-25.37,0-25.37,0ZM154.35,359.31h0s12.84,0,12.84,0h0s-12.84,0-12.84,0Z"/>
    </g>
    <path class="cls-1" d="M103.01,359.31h0s25.37,0,25.37,0h0s-25.37,0-25.37,0ZM193.16,359.31h0s25.36,0,25.36,0h0s-25.36,0-25.36,0ZM154.35,359.31h0s12.84,0,12.84,0h0s-12.84,0-12.84,0ZM103.02,385.28h0s115.51,0,115.51,0h0s-115.51,0-115.51,0ZM321.52,158.73c-.52-41.93-17.24-81.5-47.07-111.4C244.62,17.44,205.11.63,163.17.02c-43.39-.65-84.34,15.78-115.24,46.24C17.03,76.71,0,117.38,0,160.77c0,40.33,15,78.91,42.25,108.62,22.44,24.47,34.79,56.81,34.79,91.04v24.86h0v21.35c0,20,16.27,36.26,36.25,36.26h94.93c20,0,36.26-16.27,36.26-36.26v-47.05c.38-34.04,12.79-66.1,35.03-90.45,27.14-29.72,42.01-68.13,42.01-108.37,0-.68,0-1.36,0-2.03ZM154.35,359.31l-.55-135.55h13.95s-.55,135.55-.55,135.55h-12.84ZM218.52,406.64c0,5.68-4.61,10.29-10.29,10.29h-94.93c-5.67,0-10.28-4.61-10.28-10.29v-21.35s115.51,0,115.51,0v21.35ZM260.34,251.62c-26.56,29.08-41.37,67.25-41.82,107.69h-25.36s.55-135.55.55-135.55h17.37c23.81,0,43.16-19.37,43.16-43.16s-19.36-43.16-43.16-43.16c-23.71,0-43.02,19.22-43.16,42.9v.2s-.07,17.25-.07,17.25h-14.15s-.07-17.25-.07-17.25c0-.09,0-.16,0-.25-.16-23.66-19.46-42.85-43.15-42.85-23.81,0-43.16,19.37-43.16,43.16,0,23.8,19.36,43.16,43.16,43.16h17.37s.55,135.55.55,135.55h-25.37c-.27-40.35-15.03-78.47-41.62-107.48-22.84-24.91-35.41-57.25-35.41-91.06,0-36.38,14.28-70.48,40.19-96.02,25.43-25.05,58.94-38.77,94.59-38.77.68,0,1.36,0,2.03,0,35.13.52,68.26,14.61,93.28,39.7,12.51,12.54,22.27,27.1,28.97,42.92,6.69,15.82,10.3,32.89,10.52,50.45.42,34.36-12.08,67.23-35.21,92.57ZM193.82,197.79l.07-16.93v-.26c0-9.48,7.71-17.19,17.19-17.19s17.19,7.71,17.19,17.19c0,9.48-7.71,17.19-17.19,17.19h-17.26ZM127.72,197.79h-17.26c-9.48,0-17.19-7.71-17.19-17.19,0-9.48,7.71-17.19,17.19-17.19s17.19,7.71,17.19,17.19v.31s.07,16.88.07,16.88Z"/>
  </g>
  <path class="cls-2" d="M162.36,687.45c-15.82-14.05-110.59-100.75-79.06-198.32,3.37-10.43,8.61-22.32,16.92-35.02h124.81c6.47,11.05,11.88,23.16,15.55,36.3,27.17,97.13-59.83,180.18-78.22,197.04Z"/>
  <path class="cls-1" d="M161.79,576.05c-6.92-7.34-48.38-52.65-34.59-103.64,1.48-5.45,3.77-11.67,7.4-18.3h54.6c2.83,5.78,5.2,12.1,6.8,18.97,11.89,50.76-26.17,94.16-34.22,102.97Z"/>
</svg>